<?xml version="1.0" encoding="UTF-8"?>
<svg id="Layer_2" data-name="Layer 2" xmlns="http://www.w3.org/2000/svg" version="1.1" viewBox="0 0 290.3 290.3">
  <defs>
    <style>
      .cls-1 {
        fill: #fff;
        stroke-width: 0px;
      }
    </style>
  </defs>
  <path class="cls-1" d="M148.3,33.26c1.8-.53,3.63-.75,5.45-.8-1.74.43-3.41,1.05-4.87,1.87-.85.47-1.58,1.05-2.13,1.69.02.1.04.2.06.3.39-.15.77-.29,1.15-.41,1.8-.53,3.63-.75,5.45-.8-1.74.43-3.41,1.05-4.87,1.87-.42.23-.81.5-1.18.78.11.21.26.43.4.64,1.64-.43,3.3-.65,4.94-.69-1.52.38-2.96.92-4.28,1.6,1.18,1.42,3.03,2.96,5.6,4.56l3.63-8c.2-.44.67-.72,1.2-.73.14,0,.27.02.4.05.36.1.67.34.84.66,1.05,2.07,4.89,3.81,8.05,4.53.11.03.19.03.29.05-.54-.68-1.14-1.34-1.82-1.94,1.11.6,2.15,1.32,3.11,2.17.22.03.41.05.6.07-.11-.21-.21-.42-.34-.63-.68-1.1-1.61-2.13-2.65-3.05,1.26.68,2.46,1.49,3.51,2.5.37.36.72.78,1.03,1.22.07,0,.17,0,.22-.01-.22-.69-.67-1.52-1.17-2.07-4.46-4.93-12.24-8.26-18.1-7.74-1.79.16-4.11.77-5.55,2.64.34-.13.68-.26,1.02-.36Z"/>
  <path class="cls-1" d="M166.38,48.77c-1.45-.35-2.79-.9-4.03-1.57,1.37.38,2.79.61,4.16.63,1.05.02,2.08-.14,2.86-.51.02-.03.03-.06.05-.09-.71-.02-1.4-.12-2.03-.27-1.45-.35-2.79-.9-4.03-1.57,1.37.38,2.79.61,4.16.63,1.02.02,2.03-.13,2.8-.47.05-.1.1-.19.16-.29-.68,0-1.35-.06-1.97-.17-1.47-.28-2.83-.77-4.11-1.38,1.39.31,2.82.48,4.18.43.54-.01,1.07-.09,1.56-.2-.02-.26-.07-.54-.16-.81-.2-.02-.38-.03-.59-.06-3.51-.48-7.74-2.07-10.17-4.29l-2.93,6.45c2.69,1.48,5.96,3,9.9,4.51.73,0,1.44-.11,2.06-.3.06-.12.14-.26.2-.39-.73-.02-1.43-.12-2.09-.27Z"/>
  <path class="cls-1" d="M157.82,251.1c.47-.58.87-1.43,1.05-2.13-.06,0-.16,0-.22,0-.29.46-.61.89-.96,1.27-.99,1.07-2.14,1.95-3.36,2.7.99-.98,1.86-2.06,2.48-3.2.12-.21.21-.43.31-.65-.19.03-.38.06-.6.1-.9.9-1.9,1.68-2.98,2.34.64-.64,1.2-1.33,1.71-2.04-.1.03-.18.04-.29.07-3.12.9-6.85,2.85-7.78,4.98-.14.33-.44.59-.8.71-.13.04-.26.07-.4.08-.53.03-1.02-.23-1.24-.66l-4.08-7.78c-2.47,1.74-4.24,3.38-5.33,4.87,1.35.6,2.83,1.06,4.36,1.35-1.65.05-3.32-.07-4.98-.41-.13.22-.26.45-.37.66.38.26.78.51,1.22.72,1.5.74,3.21,1.26,4.97,1.59-1.82.06-3.66-.06-5.48-.49-.39-.09-.78-.21-1.18-.34-.02.1-.03.2-.05.3.58.6,1.35,1.14,2.22,1.56,1.5.74,3.21,1.26,4.97,1.59-1.82.06-3.66-.06-5.48-.49-.34-.08-.69-.19-1.04-.3,1.55,1.79,3.9,2.27,5.69,2.32,5.89.19,13.47-3.58,17.64-8.75Z"/>
  <path class="cls-1" d="M152.48,240.38c-3.85,1.74-7.03,3.44-9.63,5.07l3.29,6.27c2.31-2.36,6.44-4.17,9.91-4.86.21-.04.37-.04.58-.07.07-.29.11-.57.12-.84-.5-.08-1.03-.13-1.57-.11-1.37.03-2.78.28-4.15.67,1.24-.68,2.57-1.25,4.02-1.61.61-.15,1.28-.25,1.96-.28-.06-.1-.11-.19-.17-.28-.79-.3-1.81-.39-2.82-.31-1.37.09-2.77.41-4.12.86,1.2-.74,2.5-1.37,3.93-1.79.63-.18,1.31-.32,2.01-.38-.02-.03-.04-.06-.05-.09-.8-.32-1.84-.42-2.89-.34-1.37.09-2.77.41-4.12.86,1.2-.74,2.5-1.37,3.93-1.79.64-.19,1.34-.33,2.07-.39-.08-.13-.16-.26-.23-.38-.63-.16-1.34-.22-2.07-.18Z"/>
  <path class="cls-1" d="M63.87,166.15l-.96-.79c-.93-.77-1.82-1.53-2.69-2.28-.5-.43-.98-.86-1.46-1.29-.38-.33-.75-.67-1.12-1l-4.13,2.56c-.17.1-2.52,1.53-6,3.46-.5.28-1.02.56-1.55.86-1.77.97-3.48,1.87-5.13,2.72-.56.29-1.07.53-1.61.8-1.07.53-2.14,1.07-3.14,1.55-.61.29-1.17.53-1.75.8-.89.41-1.78.82-2.62,1.18-.59.25-1.14.47-1.72.7-.77.31-1.55.63-2.27.91-.56.21-1.08.38-1.61.57-.68.23-1.35.47-1.99.67-.51.16-.99.28-1.47.41-.59.16-1.18.32-1.74.45-.46.1-.89.18-1.32.25-.51.09-1.02.18-1.5.23-.4.05-.77.07-1.15.08-.26.01-.56.06-.8.06-.32,0-.64-.01-.94-.03-2.85-.21-4.95-2.14-5.61-5.17-.78-3.57.62-8.77,3.86-10.54.69-.38,1.43-.58,2.19-.61,7.23-.26,13.56-1.85,18.81-4.72,4.73-2.58,8.45-6.16,11.07-10.64-.24-.36-.46-.7-.67-1.04l-.39-.64c-.48-.82-.9-1.61-1.22-2.33-1.93-4.33-1.27-9.26,1.74-12.87.33-.43.66-.82,1.01-1.19.34-.37.7-.72,1.06-1.06.7-.65,1.54-1.28,2.55-1.93.39-.5.81-.97,1.29-1.4,1.09-.99,2.32-1.78,3.68-2.33,1.35-.56,2.82-.89,4.37-.98.2-.01.4-.02.6-.02.08,0,.16.01.24.01.15,0,.3.01.45.03.19.02.37.04.56.06.15.02.3.05.45.08.19.04.38.09.57.14.15.04.3.08.46.13.2.06.4.14.61.21.16.06.32.12.48.18.22.09.45.19.68.3.17.08.33.15.51.23.25.12.52.26.79.4.17.09.34.17.52.27.32.17.66.36,1,.55.16.09.31.17.48.26.52.3,1.07.61,1.67.96,7.32-4.95,15.25-9.86,22.92-14.4-1.19.05-2.34.13-3.43.26-5.57,3.34-11.24,6.86-16.67,10.43-.97.64-1.93,1.27-2.88,1.91-4.18-2.41-6.59-3.55-9.38-3.55-.23,0-.46,0-.7.02-3.44.2-6.54,1.48-8.97,3.71-.45.41-.88.86-1.29,1.38-.99.65-1.82,1.29-2.54,1.95-.82.75-1.56,1.55-2.25,2.44-3.34,4.02-4.1,9.56-1.92,14.43.31.7.74,1.51,1.3,2.47l.41.67c.05.09.11.18.17.27-2.44,3.87-5.8,6.98-10,9.28-5.05,2.76-11.15,4.28-18.14,4.53-.99.04-1.96.3-2.86.79-3.89,2.12-5.53,8.03-4.62,12.21.8,3.67,3.47,6.12,6.99,6.37.33.02.68.04,1.05.04,6.23,0,16.51-3.89,30.57-11.56,4.44-2.42,7.58-4.33,7.62-4.35l3.16-1.96c.09.08.18.16.27.24.48.43.98.87,1.48,1.3.86.76,1.77,1.52,2.7,2.3l1.23,1.01c.27-.69.6-1.33.71-1.4,0,0,0,0,0,0Z"/>
  <path class="cls-1" d="M268.48,63.72c-.67-10.37-7.03-27.98-18.52-32.86l-.41-.18c-.39-.16-.79-.24-1.2-.24-.34,0-.67.06-.99.17l-.43.15c-5.45,1.93-29.66,13.6-55.41,26.31-1.13.56-2.25,1.12-3.39,1.67-12.09-2.83-22.17-6.12-29.62-9.65l-2.02,3.59v-4.58c-4.78-2.45-8.33-5.01-10.38-7.61-.67-.84-1.18-1.67-1.54-2.51-.23.56-.43,1.2-.58,1.89.21.52.47,1.04.8,1.56.42.67.91,1.34,1.41,1.99,1.03,1.29,2.18,2.55,3.52,3.63-1.56-.83-2.97-1.88-4.3-3.01-.66-.57-1.29-1.16-1.89-1.79-.11.48-.2.94-.31,1.39.14.26.28.52.44.78.42.67.91,1.35,1.41,2,1.03,1.29,2.17,2.55,3.53,3.62-1.57-.82-2.99-1.87-4.32-3.01-.53-.45-1.02-.94-1.52-1.43-.13.49-.24.99-.37,1.45,1.21,2.21,2.93,4.27,5.07,5.98-2.07-1.06-3.98-2.44-5.62-4.09-.15.44-.29.85-.44,1.27,1.19,2.15,2.82,4.16,4.95,5.8-2.09-1-4.01-2.38-5.66-4.01-.17.37-.34.72-.51,1.06,1.21,2.21,2.84,4.28,5.04,5.94-2.24-1.05-4.24-2.57-5.96-4.34-.18.28-.35.57-.55.84,1.26,2.41,2.99,4.7,5.38,6.48-2.47-1.16-4.61-2.89-6.43-4.89-.16.24-.32.48-.48.75,1.24,2.66,3.14,5.22,5.79,7.13-2.71-1.26-5.02-3.2-6.89-5.48-.2.28-.39.55-.58.78.6,1.29,1.44,2.62,2.37,3.84,1.02,1.32,2.17,2.58,3.61,3.59-1.63-.75-3.08-1.82-4.41-2.98-.87-.78-1.67-1.61-2.43-2.49-.14.82-.02,1.66.41,2.46,1.85,3.45,7.84,7.57,17.99,11.61-.96.48-1.91.96-2.83,1.43-1.71.85-3.34,1.68-4.94,2.51.69.21,1.39.43,2.07.65,34.08-17.3,91.37-45.61,100.08-48.68l.43-.16c.16-.05.33-.07.49-.07h.03c.19,0,.39.04.57.12h.01l.4.18c2.05.86,3.93,2.17,5.62,3.77,1.14,1.07,2.19,2.28,3.17,3.59.98,1.31,1.87,2.71,2.69,4.17.81,1.46,1.55,2.99,2.21,4.54.33.78.64,1.56.93,2.34.58,1.56,1.07,3.13,1.48,4.66.83,3.06,1.33,5.99,1.49,8.49l.03.55c.03.46-.16.92-.49,1.23l-.41.37c-.63.57-2.05,1.63-6.9,4.4-1.61.92-3.61,2.03-6.08,3.38-.85.47-1.75.96-2.66,1.45-.31.16-.62.34-.94.49-.63.35-1.26.68-1.92,1.03-.37.2-.75.4-1.12.6-.63.34-1.27.67-1.93,1.02-.39.21-.79.42-1.19.63-.63.34-1.27.67-1.93,1.01-.43.23-.86.46-1.31.68-.69.37-1.41.75-2.13,1.12-.39.2-.77.41-1.17.61-.75.39-1.51.79-2.26,1.18-.4.21-.8.42-1.21.63-.82.43-1.66.86-2.51,1.29-7.36,3.81-15.24,7.82-23.09,11.78.08.01.2.02.28.02.69.04,1.39.14,2.08.24.14.01.27.02.41.04,7.6-3.83,15.18-7.7,22.23-11.35,7.95-4.12,15.23-7.96,21.07-11.15,9.91-5.41,12.3-7.12,13.27-7.99l.41-.37c.69-.64,1.06-1.54,1-2.46l-.03-.56ZM155.78,74.91l-3.83-1.98,4.54,1.62c-.24.12-.47.24-.71.36ZM159.3,73.14l-5.63-2.89,6.66,2.37c-.35.18-.69.35-1.03.53ZM162.82,71.37l-7.42-3.82,8.79,3.14c-.46.22-.92.45-1.37.68ZM166.33,69.61l-9.22-4.75,10.93,3.89c-.57.28-1.14.57-1.71.85ZM169.86,67.84l-11.03-5.67,13.06,4.66c-.67.34-1.36.67-2.03,1.01ZM173.38,66.08l-12.83-6.61,15.2,5.43c-.79.39-1.58.79-2.37,1.18ZM176.95,64.3l-14.68-7.52,16.87,6.42c-.73.37-1.45.73-2.19,1.09ZM181.11,62.24l-17.72-7.7,20.08,6.53c-.79.4-1.58.79-2.36,1.18Z"/>
  <path class="cls-1" d="M279.26,218.27c-4.37-7.42-12.76-13-24.93-16.57l-11.9-3.53-9.91-2.94c-2.93-.87-5.78-1.74-8.58-2.59l-1.36-.42c-2.82-.85-5.58-1.7-8.27-2.55l-1.06-.34c-.71-.22-1.39-.44-2.09-.66-1.21.11-2.48.23-3.81.4,1.81.57,3.6,1.15,5.45,1.73l1.06.34c2.69.84,5.46,1.69,8.27,2.55l1.37.42c2.8.85,5.65,1.72,8.59,2.59l21.82,6.46c11.79,3.46,19.88,8.8,24.04,15.88,2.02,3.43,2.8,6.75,2.96,9.61.08,1.43.01,2.76-.14,3.92-.16,1.16-.39,2.16-.61,2.97-.83,2.91-2.32,5.25-4.46,7.22-2.05,1.87-4.67,3.36-7.8,4.39-.78.25-1.42.44-2.09.61-.01,0-.43.11-.44.11-.6.14-1.22.27-1.86.39l-.47.07c-.81.13-1.43.21-2.08.29l-.65.05c-.82.07-1.46.13-2.13.16l-1.01.04c-.56.01-1.12.02-1.67.02h-.38l-.86-.02c-.98-.02-1.71-.05-2.44-.09l-1.24-.09c-.79-.06-1.57-.13-2.37-.22l-1.35-.16c-.83-.11-1.69-.22-2.58-.36l-1.37-.23c-.94-.16-1.88-.34-2.86-.53l-1.39-.28c-1.04-.22-2.11-.46-3.19-.72l-4.23-1.05c-.11-.02-.2-.06-.29-.11l-1.19-.32c-25.93-7.3-55.2-16.9-93.9-35.87-.74.2-1.47.42-2.21.61,1.57.77,3.15,1.57,4.67,2.31.98.47,1.91.89,2.86,1.36-11.94,5.13-18.79,10.16-20.62,14.08-.39.83-.45,1.67-.27,2.48.71-.92,1.45-1.8,2.28-2.62,1.26-1.24,2.65-2.39,4.23-3.22-1.38,1.08-2.45,2.41-3.4,3.78-.85,1.27-1.62,2.64-2.14,3.97.19.23.4.48.61.76,1.75-2.39,3.96-4.46,6.58-5.88-2.54,2.06-4.29,4.72-5.38,7.45.18.25.36.49.53.72,1.71-2.09,3.74-3.96,6.15-5.24-2.29,1.91-3.88,4.29-5,6.77h0c.21.26.39.54.59.81,1.61-1.86,3.53-3.49,5.69-4.66-2.09,1.78-3.6,3.94-4.69,6.21.2.34.39.68.57,1.03,1.56-1.73,3.39-3.2,5.42-4.33-2.02,1.76-3.54,3.86-4.61,6.07.18.41.35.81.52,1.24,1.56-1.74,3.38-3.22,5.39-4.4-2.05,1.82-3.64,3.99-4.73,6.25.15.45.29.95.44,1.43.46-.53.94-1.03,1.43-1.52,1.27-1.21,2.63-2.34,4.15-3.25-1.29,1.16-2.36,2.47-3.32,3.82-.47.68-.92,1.38-1.31,2.07-.14.26-.26.54-.39.8.13.45.25.89.38,1.37.57-.66,1.17-1.28,1.79-1.88,1.27-1.21,2.63-2.34,4.13-3.25-1.27,1.16-2.34,2.47-3.29,3.82-.47.67-.92,1.37-1.31,2.07-.28.53-.53,1.07-.71,1.59.18.69.42,1.33.69,1.86.29-.84.76-1.71,1.38-2.59,2.55-3.61,7.7-7.29,14.97-10.88l-.29-4.98,2.52,3.9c7.38-3.43,16.69-6.74,27.55-9.76,1.24.49,2.49.99,3.73,1.45,17.72,6.79,33.34,11.61,47.91,15.71l1.08.28c.13.05.25.09.39.14l4.28,1.06c1.12.26,2.19.51,3.24.73l1.4.28c1,.2,1.97.38,2.91.55l1.39.22c.92.15,1.79.26,2.63.37l1.35.17c.84.08,1.63.16,2.44.22l1.25.09c.78.04,1.51.07,2.52.09l.86.02h.41c.58,0,1.15-.01,1.72-.02l1.02-.04c.71-.03,1.36-.08,2.21-.16l.66-.06c.71-.07,1.35-.17,2.19-.31l.45-.07c.72-.13,1.36-.26,1.99-.41.05-.01.13-.03.21-.05h.04s.01-.01.01-.01l.19-.04c.71-.18,1.38-.38,2.2-.63,3.35-1.12,6.16-2.71,8.36-4.73,2.4-2.2,4-4.8,4.9-7.93.97-3.46,1.96-10.35-2.36-17.69ZM143.5,214.85l.67-.29s.08.04.13.06l-.8.23ZM148,216.35c.2.09.39.18.59.27l-3.53,1.02,2.94-1.29ZM146.61,220.44l5.27-2.32c.36.16.72.32,1.06.48l-6.34,1.83ZM155.76,219.88c.54.24,1.05.46,1.58.69l-9.18,2.65,7.6-3.35ZM149.71,226.02l10.03-4.42c.69.31,1.39.61,2.08.91l-12.11,3.52ZM163.72,223.33c.88.38,1.76.75,2.63,1.12l-15.08,4.37,12.45-5.48ZM167.82,225.05c.85.36,1.72.72,2.57,1.06l-17.57,5.49,15-6.56ZM153.8,233.91l18.86-6.85c1,.4,1.96.77,2.95,1.16v.04s-21.81,5.65-21.81,5.65Z"/>
  <path class="cls-1" d="M139.61,161.41l-.88-.41c-2.52-1.18-5.08-2.4-7.67-3.66l-1.06-.52c-2.6-1.27-5.24-2.58-7.93-3.94l-.97-.5c-2.78-1.41-5.6-2.86-8.49-4.37-4.87-2.54-9.93-5.25-15.47-8.29-.49-.27-.97-.53-1.44-.79l33.7-20.94c-.65-.19-1.31-.4-1.96-.58l-34.76,21.59c1.19.66,2.42,1.34,3.73,2.06,5.38,2.94,10.52,5.7,15.49,8.3,2.9,1.52,5.72,2.97,8.5,4.38l.98.5c2.7,1.36,5.34,2.68,7.95,3.95l1.07.52c2.6,1.26,5.16,2.49,7.69,3.67l.88.41c.33.15.65.3.98.45.74-.23,1.46-.46,2.17-.69-.84-.39-1.66-.75-2.51-1.15Z"/>
  <path class="cls-1" d="M59.75,124.96c-.95-.16-1.95-.07-2.89.15.5-.02.99,0,1.49.08.66.02,1.32.11,1.95.32,1.78.59,3.4,1.63,5.01,2.56.43.25.86.49,1.3.74.19-.13.38-.27.58-.4-.83-.47-1.67-.95-2.51-1.42-1.53-.85-3.18-1.75-4.92-2.03Z"/>
  <path class="cls-1" d="M52.54,153.62c-1.06.81-1.78,1.35-1.78,1.35-1.69-1.47-7.72,2.93-8.67,3.63,4.42-3.78,6.26-6.57,7.38-8.52-.11-.13-.2-.25-.31-.39-.12-.14-.24-.29-.36-.43-2.96,5.06-7.15,9.12-12.54,12.05-5.78,3.16-12.68,4.9-20.5,5.18-.16.01-.33.05-.49.15-1.45.79-2.45,4.07-1.96,6.38.15.65.38,1.09.63,1.41,11.19-.53,28.51-12.37,39.12-20.26-.17-.18-.36-.37-.53-.55ZM20,168.45c-3.87.76-5.26,2.81-5.47,3.14.06-.38.66-3.42,1.88-3.61,2.41-.38,6.72-.65,12.4-2.29-3.17,1.49-6.34,2.29-8.81,2.77Z"/>
  <path class="cls-1" d="M171.23,83.83c-.1.06-.2.11-.31.17.55,2.02,1.25,4,2.01,5.95.57.18,1.15.35,1.73.53-1.26-2.16-2.42-4.37-3.43-6.65Z"/>
  <path class="cls-1" d="M168.44,85.41c-.1.06-.2.11-.3.17.27,1.04.58,2.06.91,3.07.36.12.72.24,1.08.36-.61-1.18-1.17-2.38-1.69-3.6Z"/>
  <path class="cls-1" d="M169.82,84.62c-.1.06-.19.11-.29.16.41,1.53.89,3.02,1.42,4.5.48.16.95.33,1.43.48-.93-1.68-1.8-3.39-2.57-5.15Z"/>
  <path class="cls-1" d="M68.56,130.24c.23.14.46.27.7.42.14.08.31.18.45.27,3.48-2.4,7.64-5.21,11.6-7.79,0,0-5.33,5.65-1.84,6.83,3.48,1.18,18.75-7.15,18.75-7.15,0,0-10.26,6.4-20.32,12.9.29.17.55.32.84.49,12.25-7.82,26.24-16.19,35.98-21.93-2.85-.61-5.69-1.17-8.5-1.64-.17-.03-.33-.08-.47-.14-.91-.41-1.7-.69-2.31-.86,0,0,0,0-.01,0-.37-.11-.69-.18-.9-.21-1.17-.14-2.29-.23-3.4-.32-10.37,6.01-21.12,12.61-30.58,19.13Z"/>
  <path class="cls-1" d="M167.03,86.2c-.1.05-.19.11-.28.16.14.55.29,1.09.44,1.63.28.1.54.2.82.3-.33-.69-.68-1.38-.98-2.09Z"/>
  <path class="cls-1" d="M165.63,87c-.09.05-.19.11-.28.16.01.06.03.11.04.17.15.06.3.11.45.17-.07-.17-.14-.33-.21-.5Z"/>
  <path class="cls-1" d="M248.27,35.96c-9.35,3.54-61.99,29.5-95.81,46.63.59.2,1.18.4,1.77.61,1.31-.68,2.62-1.36,3.94-2.03,4.29-2.21,8.62-4.37,12.95-6.52,4.43-2.2,8.87-4.37,13.31-6.54,3.55-1.74,7.08-3.46,10.63-5.2,1.45-.71,2.91-1.42,4.36-2.13-3.18,2.01-6.42,3.92-9.71,5.75-6.9,3.83-13.98,7.38-21.12,10.76-4.52,2.13-9.07,4.17-13.66,6.15,1.2.42,2.42.86,3.64,1.33,33.46-17.12,83.28-41.42,92.27-45.45,2.37,2.2,4.26,4.87,5.83,7.69.02.03.03.07.05.11.91,1.65,1.74,3.35,2.39,5.05-.05-.08-.12-.17-.17-.25,1.16,3.03,1.95,6.18,2.52,9.39-.24-.88-.47-1.76-.75-2.63-1.09-3.54-2.61-6.88-4.57-10.01-.2-.17-.41-.33-.62-.47.08.16.18.32.26.48,1.77,3.55,2.96,7.32,3.78,11.18-.26-.85-.53-1.69-.83-2.53-1.29-3.62-3.05-7.01-5.24-10.17-.18-.06-.37-.13-.56-.18.21.37.44.73.64,1.09,1.83,3.34,3.14,6.9,4.06,10.59-1.53-4.32-3.62-8.34-6.39-11.99-.16-.01-.32-.02-.47-.02,2.2,3.56,3.87,7.35,5.02,11.39-1.61-4.12-3.76-7.92-6.5-11.37-.15.01-.28.01-.43.03,2.23,3.45,3.97,7.16,5.18,11.1-1.66-3.96-3.83-7.6-6.55-10.9-.13.02-.25.05-.38.07,2.17,3.28,3.87,6.79,5.12,10.54-1.67-3.7-3.8-7.12-6.42-10.22-.11.03-.23.06-.34.11,2.15,3.23,3.86,6.68,5.14,10.36-1.69-3.61-3.82-6.94-6.4-9.97-.12.04-.24.08-.36.13,2.07,3.08,3.76,6.38,5.03,9.87-1.68-3.41-3.75-6.56-6.21-9.44-.12.04-.23.09-.35.14,1.98,2.96,3.65,6.1,4.86,9.45-1.62-3.25-3.67-6.24-6.04-8.98-.12.04-.23.09-.36.14,1.93,2.87,3.57,5.93,4.78,9.17-1.61-3.14-3.62-6.04-5.93-8.7-.12.04-.23.09-.36.14,1.86,2.79,3.45,5.75,4.65,8.88-1.6-3.02-3.57-5.82-5.8-8.4-.12.04-.23.08-.34.14,1.81,2.75,3.37,5.64,4.56,8.72-1.59-2.96-3.54-5.69-5.73-8.23-.12.04-.23.08-.35.14,1.78,2.71,3.32,5.56,4.5,8.57-1.58-2.89-3.49-5.59-5.65-8.07-.11.04-.22.09-.33.14,1.73,2.65,3.22,5.44,4.4,8.38-1.58-2.82-3.46-5.44-5.57-7.88-.11.04-.21.09-.32.14,1.67,2.59,3.13,5.33,4.29,8.18-1.57-2.73-3.41-5.28-5.47-7.66-.09.04-.2.08-.31.13,1.65,2.59,3.11,5.3,4.27,8.16-1.57-2.72-3.4-5.26-5.44-7.64-.11.04-.2.08-.29.14,1.63,2.58,3.07,5.28,4.23,8.12-1.57-2.69-3.39-5.23-5.42-7.6-.09.04-.2.09-.29.14,1.62,2.57,3.05,5.26,4.21,8.07-1.56-2.67-3.37-5.19-5.38-7.55-.09.04-.19.08-.28.13,1.59,2.57,3,5.24,4.16,8.03-1.57-2.65-3.36-5.15-5.34-7.49-.09.04-.19.08-.28.13,1.56,2.53,2.94,5.16,4.07,7.9-1.55-2.59-3.3-5.05-5.25-7.37-.08.04-.18.08-.26.13,1.57,2.57,2.95,5.25,4.09,8.03-1.55-2.62-3.32-5.1-5.26-7.45.04-.03.08-.06.13-.09-.14.06-.27.13-.4.19,1.58,2.61,2.96,5.34,4.13,8.16-1.56-2.64-3.32-5.15-5.26-7.52.17-.12.33-.23.48-.35-.27.13-.55.26-.82.39,1.56,2.59,2.94,5.28,4.09,8.07-1.57-2.63-3.33-5.15-5.26-7.52-.08.04-.18.07-.26.13,1.56,2.62,2.94,5.36,4.1,8.19-1.57-2.67-3.34-5.22-5.28-7.63-.08.03-.18.07-.26.12,1.55,2.6,2.88,5.33,4.04,8.12-1.55-2.61-3.27-5.14-5.19-7.49.11-.07.22-.15.33-.22-.21.09-.42.2-.63.31,1.54,2.61,2.88,5.34,4.04,8.14-1.56-2.64-3.28-5.19-5.2-7.58-.09.04-.18.08-.27.13,1.53,2.62,2.86,5.37,4.02,8.18-1.56-2.64-3.27-5.21-5.18-7.61-.09.04-.19.09-.28.14,1.52,2.64,2.84,5.39,4.01,8.19-1.56-2.64-3.26-5.21-5.16-7.63-.09.05-.19.09-.28.15,1.49,2.62,2.8,5.36,3.96,8.14-1.55-2.62-3.23-5.17-5.09-7.58-.09.04-.19.09-.28.14,1.52,2.69,2.84,5.5,4.02,8.36-1.57-2.68-3.27-5.3-5.17-7.79-.08.05-.18.09-.27.15,1.48,2.67,2.79,5.46,3.96,8.29-1.56-2.66-3.25-5.26-5.1-7.73-.08.04-.18.08-.27.14,1.46,2.69,2.76,5.48,3.93,8.3-1.56-2.65-3.23-5.25-5.07-7.73-.08.04-.18.08-.26.14,1.43,2.76,2.76,5.56,3.95,8.43-1.58-2.69-3.28-5.3-5.09-7.85-.09.04-.18.08-.27.14,1.39,2.69,2.66,5.45,3.82,8.25-1.55-2.62-3.21-5.18-4.97-7.67-.08.04-.17.09-.26.14,1.38,2.75,2.66,5.54,3.84,8.38-1.57-2.66-3.23-5.25-4.99-7.79-.08.04-.17.08-.26.14,1.36,2.75,2.63,5.54,3.8,8.37-1.56-2.65-3.21-5.24-4.95-7.78-.08.04-.17.08-.26.13,1.33,2.74,2.57,5.5,3.73,8.3-1.55-2.61-3.17-5.18-4.87-7.7-.08.04-.17.09-.25.14,1.29,2.74,2.53,5.49,3.67,8.29-1.54-2.61-3.15-5.18-4.82-7.69-.08.04-.18.08-.26.13,1.31,2.8,2.55,5.62,3.73,8.47-1.57-2.66-3.19-5.28-4.87-7.87-.08.04-.17.09-.25.14.14.32.27.63.41.95,1.04,2.42,2.09,4.84,3.14,7.26-.19-.33-.39-.64-.59-.97-1.37-2.21-2.74-4.42-4.1-6.64-.08.05-.17.09-.25.14l.41.98c1.06,2.46,2.13,4.93,3.18,7.4-.2-.34-.4-.66-.6-.99-1.38-2.26-2.76-4.53-4.14-6.79-.08.05-.18.09-.26.14.14.32.27.64.41.96,1.03,2.44,2.07,4.88,3.1,7.34-.19-.33-.39-.64-.58-.97-1.36-2.24-2.72-4.47-4.07-6.72-.08.04-.17.09-.26.14.14.33.27.64.41.97,1.05,2.49,2.09,4.99,3.15,7.48-.2-.34-.4-.66-.59-.99-1.37-2.28-2.74-4.57-4.1-6.85-.08.04-.18.08-.26.14.14.32.26.63.4.95,1.02,2.47,2.04,4.94,3.07,7.41-.19-.33-.39-.65-.58-.97-1.34-2.26-2.68-4.53-4.03-6.78-.08.04-.17.09-.26.14.14.31.26.62.39.93,1.01,2.46,2.02,4.94,3.03,7.4-.19-.32-.38-.64-.57-.96-1.33-2.25-2.65-4.5-3.98-6.76-.09.04-.18.09-.26.14.13.32.25.63.38.95,1.01,2.49,2.02,4.98,3.03,7.46-.19-.33-.39-.66-.58-1-1.33-2.26-2.64-4.53-3.97-6.8-.08.05-.18.09-.26.15.13.31.24.61.37.92,1,2.49,2,4.98,2.99,7.46-.19-.33-.38-.66-.57-.99-1.31-2.26-2.61-4.52-3.92-6.78-.09.05-.18.09-.27.15.13.31.25.61.37.92,1,2.51,2,5.02,3,7.54-.19-.34-.39-.67-.58-1-1.31-2.28-2.61-4.57-3.9-6.84-.09.04-.19.09-.27.15.12.29.23.6.36.91.98,2.51,1.96,5,2.95,7.5-.19-.34-.38-.67-.57-1-1.28-2.27-2.58-4.54-3.86-6.8-.08.05-.18.11-.27.15,1.04,2.85,2.14,5.68,3.3,8.48-1.54-2.59-3-5.21-4.42-7.87-.09.05-.18.11-.27.16,1.01,2.84,2.07,5.65,3.24,8.44-1.53-2.57-2.97-5.19-4.36-7.83-.09.05-.19.11-.27.16.99,2.86,2.05,5.69,3.23,8.49-1.54-2.58-2.98-5.21-4.35-7.88-.09.05-.19.11-.28.16.97,2.85,2.01,5.67,3.19,8.45-1.54-2.56-2.96-5.18-4.29-7.84-.09.05-.19.11-.28.16.95,2.87,1.99,5.72,3.18,8.5-1.55-2.57-2.96-5.21-4.28-7.89-.09.05-.19.11-.28.17.89,2.83,1.92,5.63,3.07,8.38-1.52-2.53-2.89-5.13-4.17-7.77-.11.05-.2.11-.31.16.86,2.89,1.93,5.73,3.12,8.5-1.55-2.56-2.96-5.18-4.2-7.89-.11.06-.21.12-.31.17.82,2.85,1.85,5.65,3.02,8.38-1.53-2.51-2.89-5.1-4.1-7.77-.11.06-.2.12-.31.17.71,2.49,1.59,4.94,2.59,7.34,6.57,2.02,13.34,3.73,19.82,4.95,3.09-1.55,6.01-3.02,8.42-4.22-1.43,1.17-4.89,3-7.33,4.41.54.09,1.05.18,1.58.27,6.22-2.95,17.88-8.81,21.97-10.13-4.61,2.52-12.07,6.33-20.24,10.42.56.09,1.11.17,1.65.25,18.57-9.31,38.09-19.34,50.5-26.1,7.6-4.15,10.66-6.05,11.83-6.93-.79-9.07-6.35-23.55-14.83-27.52ZM233.38,46.6c13.17-8.04-6.44.93-17.65,5.67,1.82-.89,21.47-10.55,32.21-14.96l1.83,1.27-16.39,8.01ZM256.45,66.47c-1.08.6-6.22,3.39-7.45,4.06-2.74,1.49-12.96,6.77-16.35,8.56,2.39-2.31,6.34-3.81,4.2-3.77-.78.02-6.2,3.02-12.14,5.25,9.16-4.73,28.74-14.89,34.88-18.27-2.08,1.92-10.86,6.18-10.98,7.33-.06.59,5.86-2.89,7.83-3.16Z"/>
  <path class="cls-1" d="M83.71,139.03c.45.26.89.5,1.36.77.06-.04.12-.07.18-.1,4.03-2.42,8.04-4.88,12.04-7.33,3.9-2.4,7.8-4.81,11.69-7.23,3.64-2.26,7.27-4.53,10.89-6.82,1.08-.68,2.16-1.37,3.24-2.06-.1-.03-.21-.06-.31-.08-2.56,1.5-5.11,3-7.67,4.51-4.05,2.38-8.11,4.77-12.17,7.15-4.39,2.58-8.77,5.16-13.18,7.71-2.02,1.17-4.05,2.33-6.07,3.49Z"/>
  <path class="cls-1" d="M38.55,168.26c4.1-2.12,8.1-4.42,12.02-6.85,1.99-1.24,3.93-2.53,5.87-3.84-.29-.28-.58-.56-.86-.83-.05.04-.11.08-.16.12-4.17,2.95-8.49,5.69-12.9,8.28-4.25,2.5-8.59,4.85-13.08,6.89-3.6,1.64-7.38,3.23-11.31,3.9-.82.14-1.63.21-2.46.25,3.78-.06,7.43-1.2,10.95-2.51,4.09-1.52,8.05-3.41,11.93-5.41Z"/>
  <path class="cls-1" d="M135.26,164.71c-4.48-2.11-8.95-4.25-13.38-6.46-3.67-1.83-7.33-3.7-10.97-5.6-3.52-1.83-7.02-3.69-10.52-5.57-4.19-2.26-8.36-4.56-12.51-6.88l-.59.37c2.82,1.57,5.63,3.14,8.47,4.69,4.99,2.72,10.01,5.38,15.05,8v.02c2.06,1.07,4.13,2.14,6.21,3.2,5.75,2.92,11.55,5.74,17.39,8.49.29-.09.58-.17.86-.26Z"/>
  <path class="cls-1" d="M267.1,212.79c-3.2-2.15-6.65-3.81-10.26-5.17-3.73-1.4-7.59-2.43-11.4-3.56-3.5-1.04-7-2.07-10.5-3.12-7.37-2.19-14.73-4.42-22.06-6.71-3.82-1.19-7.64-2.4-11.45-3.64-.41-.13-.82-.28-1.23-.41-.45.08-.9.17-1.36.25,2.98.98,5.96,1.96,8.95,2.9,3.75,1.19,7.51,2.35,11.27,3.5,3.76,1.15,7.53,2.28,11.3,3.41,7.19,2.14,14.39,4.25,21.59,6.35,7.16,2.09,14.16,5.05,19.72,10.09,1.02.93,1.98,1.91,2.93,2.91-2.21-2.55-4.64-4.9-7.48-6.8Z"/>
  <path class="cls-1" d="M275.32,226.61c-3.5-5.96-12.9-11.33-27.2-15.52l-3.17-.93c-1.45,10.66-5.23,22.74-10.06,32.13,24.37,6.06,34.34,1.22,38.14-2.26,1.66-1.53,2.81-3.33,3.41-5.36.8-2.72.42-5.43-1.13-8.06ZM275.03,231.44c-3.03,2.44-8.75,2.92-14.65,2.57.19-.18.37-.35.53-.55.34-.42.56-.87.75-1.35,4.55.58,9.23.59,13.38-.67ZM260.25,232.95c-1.57,2-4.47,2.36-6.48.79-2-1.58-2.35-4.48-.78-6.48,1.57-2,4.47-2.36,6.48-.79,2,1.58,2.35,4.48.78,6.48ZM246.37,212.18s16.84,4.75,23.23,10.09c-9.09-4.77-23.51-8.01-23.51-8.01l.28-2.08ZM272.22,239.22c-2.37,2.17-7.26,4.88-16.95,4.88-4.92,0-11.07-.71-18.76-2.53,1.65-3.35,3.17-7,4.49-10.78l1.28-3.61c1.85.53,5.05,1.64,8.89,2.73-.03,1.12.27,2.22.91,3.17-6.19-.97-11.08-2.28-11.08-2.28,3.1,1.08,7.47,2.4,12.11,3.46.05.04.08.08.14.13,1.46,1.15,3.35,1.42,5,.89,6.87,1.17,13.57,1.38,17.08-.96-.55,1.85-1.6,3.49-3.13,4.89Z"/>
  <path class="cls-1" d="M65.58,134.83c-6.05-3.59-8.41-4.98-10.31-5.19-.27-.03-.54-.04-.8-.02-.56.03-1.09.11-1.62.22-1.56.35-2.96,1.06-4.12,2.13-2.75,2.52-3.56,6.52-2.02,9.96.94,2.11,5.14,9.82,20.06,21.86,4.44-6.63,10.84-13.85,15.84-19.12-7.75-4.34-13.08-7.49-17.03-9.83ZM55.37,138.63c1.17,1.08,2.4,2.11,3.64,3.12-.24.25-.45.53-.62.81-1.35-1.33-2.64-2.68-3.87-4.1-1.02-1.18-1.92-2.43-2.82-3.69,1.18,1.34,2.37,2.65,3.67,3.87ZM59.56,142.09c1.63-1.6,4.26-1.57,5.86.06,1.6,1.63,1.57,4.25-.06,5.85-1.62,1.6-4.25,1.57-5.85-.05-1.6-1.63-1.57-4.26.05-5.86ZM72.31,154.32c-1.96,2.38-4.17,5.41-5.81,7.85-1.27-1.04-2.43-2.03-3.54-3.01,1,.55,1.8.75,2.09.43.52-.55-.71-2.41-2.72-4.16-2.02-1.75-4.07-2.73-4.59-2.18-.22.23-.11.72.24,1.33-7.16-7.04-9.57-11.54-10.25-13.05-1.35-3.03-.63-6.56,1.8-8.77-.73,3.45,2.75,7.23,8.19,11.73-.17,1.39.26,2.84,1.32,3.92,1.4,1.43,3.48,1.79,5.23,1.08,3.68,2.46,7.7,4.65,8.01,4.82-1.48-1.04-2.7-2.18-4.14-3.28-.94-.72-1.83-1.47-2.74-2.22.14-.12.28-.21.41-.34.35-.34.61-.73.82-1.13,2.47,1.63,5.03,3.21,7.58,4.64-.58.69-1.57,1.87-1.92,2.34ZM60.41,133.39c7.12,4.56,19.97,11.83,19.97,11.83l-1.41,1.56-18.56-13.39Z"/>
  <path class="cls-1" d="M229.63,213.29c6.42,1.94,11.82,3.91,10.02,12.29,2.29-5.85,3.52-15.86,3.52-15.86-20.21-5.95-37.85-11.23-54.86-17.02-3.73.89-7.39,1.86-10.8,2.82,17.04,6.56,34.23,12.37,52.13,17.77Z"/>
  <path class="cls-1" d="M89.94,148.84c-1.39-.76-5.49-3.12-5.49-3.12,0,0-4.04,3.8-10.42,11.4,1.97-1.76,7.36-7.94,14.41-3.95,10.33,5.86,20.4,11.23,30.34,16.25,2.43-.64,4.87-1.31,7.3-2-11.25-5.37-23.14-11.48-36.13-18.59Z"/>
  <path class="cls-1" d="M129.59,165.83c-3.65-1.75-7.29-3.52-10.92-5.34-7.26-3.64-14.45-7.4-21.6-11.24-6.83-3.68-13.61-7.43-20.33-11.3-3.31-1.91-6.62-3.83-9.95-5.71-1.65-.93-3.28-1.87-4.94-2.79-1.53-.85-3.18-1.74-4.93-2-1.31-.2-2.71.04-3.9.49,1.43-.32,3.01-.43,4.45.03,1.79.57,3.42,1.62,5.03,2.56,3.31,1.92,6.63,3.82,9.96,5.72,6.72,3.83,13.45,7.64,20.24,11.33,7.14,3.88,14.29,7.75,21.56,11.39,5.06,2.53,10.14,5.02,15.25,7.46.28-.08.56-.17.84-.25-.25-.12-.51-.23-.76-.35Z"/>
  <path class="cls-1" d="M192.49,191.74c.31.1.62.21.92.32,3.84,1.28,7.7,2.53,11.56,3.76,7.77,2.49,15.6,4.83,23.42,7.16,3.8,1.13,7.61,2.26,11.41,3.38,3.82,1.12,7.65,2.19,11.45,3.36,3.62,1.11,7.2,2.4,10.64,3.98,3.02,1.38,5.95,3.01,8.57,5.03.99.76,1.91,1.6,2.79,2.47-1.09-1.16-2.24-2.21-3.5-3.21-1.5-1.19-3.15-2.21-4.82-3.15-3.07-1.73-6.33-3.13-9.64-4.33-3.68-1.34-7.45-2.41-11.21-3.52-3.86-1.14-7.72-2.29-11.57-3.44-7.71-2.29-15.4-4.64-23.08-7.02-5.25-1.63-10.48-3.32-15.7-5.05-.42.09-.84.18-1.26.28Z"/>
  <path class="cls-1" d="M170.66,220.15c1.25.51,2.5,1.02,3.73,1.53.62.25,1.24.5,1.85.75.62.24,1.23.48,1.85.72,1.22.48,2.44.95,3.64,1.42,1.2.47,2.39.94,3.58,1.37,2.37.88,4.69,1.74,6.95,2.58,2.27.81,4.48,1.59,6.62,2.35,2.15.73,4.22,1.43,6.21,2.11,1.99.68,3.91,1.28,5.73,1.88,1.82.6,3.55,1.14,5.19,1.64,3.26,1.01,6.12,1.83,8.47,2.52,1.77.52,3.26.94,4.42,1.26l.04.02h0c.37.1.7.2,1,.28.17.05.3.08.45.13l.26.1v-.02c.8.23,1.23.35,1.23.35,0,0-.43-.14-1.22-.4l1.06-4.26-1.98,3.96c-.24-.08-.49-.16-.77-.25l1.06-4.2-1.97,3.9c-.25-.08-.5-.17-.77-.25l1.05-4.14-1.95,3.84c-.25-.08-.52-.17-.79-.26l1.05-4.08-1.94,3.79c-.05-.02-.1-.03-.15-.05-.2-.07-.42-.14-.63-.21l1.05-4.03-1.93,3.74c-.26-.09-.53-.18-.81-.27l1.05-3.97-1.91,3.68c-.28-.09-.55-.18-.83-.28l1.04-3.92-1.9,3.63c-.27-.09-.53-.18-.81-.27l1.04-3.87-1.89,3.58c-.27-.09-.55-.19-.83-.28l1.03-3.81-1.87,3.52c-.06-.02-.12-.04-.18-.06-.22-.07-.46-.15-.68-.23l1.03-3.76-1.87,3.49c-.28-.09-.55-.18-.84-.28l1.03-3.73-1.86,3.45c-.28-.1-.56-.19-.85-.29l1.03-3.69-1.85,3.41c-.1-.04-.2-.07-.3-.1-.19-.07-.38-.13-.57-.2l1.03-3.65-1.85,3.37c-.28-.1-.56-.19-.85-.29l1.03-3.61-1.84,3.33c-.28-.1-.58-.2-.86-.3l1.03-3.57-1.83,3.29c-.3-.11-.59-.2-.89-.31l1.03-3.54-1.82,3.25c-.29-.11-.59-.21-.89-.32l1.03-3.49-1.81,3.21c-.29-.11-.58-.21-.87-.31l1.03-3.46-1.81,3.18c-.3-.11-.6-.21-.89-.32l1.03-3.42-1.8,3.14c-.17-.06-.32-.12-.49-.18-.14-.05-.28-.1-.42-.16l1.03-3.39-1.79,3.11c-.29-.11-.59-.22-.88-.33l1.03-3.35-1.79,3.07c-.3-.11-.6-.22-.9-.33l1.03-3.32-1.79,3.05c-.31-.11-.61-.23-.92-.34l1.03-3.3-1.79,3.03c-.14-.05-.28-.1-.42-.15-.16-.06-.33-.13-.49-.19l1.04-3.28-1.78,3c-.29-.11-.6-.23-.89-.34l1.04-3.25-1.78,2.97c-.3-.12-.61-.23-.92-.35l1.04-3.22-1.78,2.94c-.31-.12-.62-.24-.94-.36l1.04-3.2-1.78,2.92c-.31-.12-.61-.23-.92-.36l1.05-3.18-1.78,2.9c-.3-.12-.61-.24-.91-.36l1.05-3.16-1.78,2.88c-.31-.12-.62-.24-.93-.37l1.05-3.14-1.78,2.86c-.31-.12-.62-.24-.93-.37l1.06-3.13-1.78,2.84c-.31-.12-.6-.23-.91-.36l1.07-3.12-1.79,2.83c-.31-.12-.62-.25-.92-.37l1.07-3.11-1.79,2.82c-.31-.13-.63-.25-.94-.38l1.08-3.09-1.8,2.8c-.3-.12-.61-.25-.91-.37l1.08-3.08-1.8,2.79c-.3-.13-.61-.25-.91-.38l1.09-3.07-1.8,2.77c-.17-.07-.34-.14-.51-.21-.14-.06-.28-.12-.42-.17l1.1-3.06-1.81,2.77c-.31-.13-.63-.26-.94-.39l1.11-3.06-1.82,2.76c-.3-.13-.61-.24-.91-.38l1.12-3.06-1.83,2.75c-.3-.13-.61-.26-.91-.39l1.12-3.05-1.84,2.74c-.31-.13-.62-.26-.93-.39l1.13-3.04-1.85,2.73c-.3-.13-.61-.26-.91-.39l1.14-3.04-1.86,2.73c-.3-.13-.6-.26-.9-.38l1.15-3.04-1.87,2.73c-.14-.06-.28-.12-.42-.18-.16-.07-.33-.15-.49-.22l1.16-3.04-1.88,2.72c-.31-.14-.61-.27-.92-.41l1.17-3.02-1.88,2.71c-.3-.13-.59-.26-.88-.39l1.17-3.02-1.89,2.7c-.3-.13-.6-.27-.9-.4l1.18-3.01-1.9,2.69c-.3-.14-.61-.27-.91-.4l1.19-3.01-1.92,2.69-.92-.41,1.21-3.01-1.93,2.69-.22-.1-.65-.3,1.22-3.01-1.94,2.68-.53-.25c-.12-.06-.24-.11-.36-.17l1.22-3-1.94,2.66c-.3-.14-.6-.28-.9-.42l1.18-2.86s-.04.01-.05.02l-1.84,2.51c-.29-.14-.58-.27-.87-.41l.59-1.42c-.22.07-.44.14-.67.21l-.64.87c-.29-.14-.58-.27-.87-.41-.51.16-1.02.31-1.53.46,2.08.98,4.15,1.95,6.24,2.93l1.9.89,1.92.87c1.28.58,2.55,1.15,3.83,1.72,1.27.57,2.55,1.14,3.81,1.71,1.28.55,2.55,1.1,3.82,1.65,1.27.55,2.53,1.09,3.79,1.63,1.25.55,2.52,1.05,3.77,1.57Z"/>
  <path class="cls-1" d="M56.14,151.34c-.16.15-.09.47.16.72.25.25.58.33.74.18.16-.15.09-.47-.16-.72-.25-.25-.58-.33-.74-.18Z"/>
  <path class="cls-1" d="M245.15,241.58c2.32.56,4.35.34,4.53-.49.18-.83-1.56-1.95-3.88-2.5-2.32-.56-4.35-.34-4.53.49-.18.83,1.56,1.95,3.88,2.5Z"/>
  <path class="cls-1" d="M252.77,241.02c-.35.32-.35.86,0,1.21.35.35.92.37,1.27.05.35-.32.35-.86,0-1.21-.35-.35-.92-.37-1.27-.05Z"/>
  <polygon class="cls-1" points="233.43 236.95 231.44 240.96 232.35 241.3 233.43 236.95"/>
  <path class="cls-1" d="M87.44,174.99c.12,0,.23,0,.35,0l.49-.86-.84.85Z"/>
  <path class="cls-1" d="M85.83,174.88l.96-1.66-1.6,1.61c.21.02.42.04.64.06Z"/>
  <path class="cls-1" d="M83,174.6c.3.04.6.08.9.12l1.41-2.42-2.31,2.3Z"/>
  <path class="cls-1" d="M82.03,174.43l1.81-3.08-2.63,2.6c-.24-.15-.46-.3-.69-.45l1.85-3.11-2.64,2.59c-.24-.16-.47-.31-.71-.46l1.86-3.11-2.66,2.58c-.21-.14-.42-.28-.63-.41l1.87-3.1-2.67,2.57c-.2-.14-.42-.28-.62-.41l1.89-3.1-2.68,2.57c-.22-.14-.44-.3-.65-.43l1.91-3.1-2.71,2.57c-.23-.16-.47-.31-.68-.46l1.93-3.11-2.73,2.57c-.26-.18-.49-.33-.72-.48l1.95-3.12-2.75,2.57.05.04c-.33-.23-.61-.42-.81-.55l1.97-3.12-2.76,2.55.77.6v-.02c.28.2.7.49,1.25.89,1.07.76,2.63,1.88,4.64,3.28,1.47,1.02,3.17,2.2,5.1,3.49.3.05.6.1.9.15Z"/>
  <path class="cls-1" d="M106.19,166.31c-6.31-3.37-12.56-6.84-18.78-10.36-.17-.09-.33-.19-.5-.28,5.45,3.34,10.92,6.65,16.5,9.76,3.28,1.83,6.58,3.62,9.89,5.38.34-.08.69-.17,1.03-.26-2.73-1.4-5.45-2.8-8.15-4.24Z"/>
  <path class="cls-1" d="M191.77,203.84c.18.06.36.12.54.18-6.14-2.27-12.3-4.51-18.4-6.9-.27-.1-.54-.21-.8-.32-.3.09-.57.17-.86.26,6.47,2.38,12.97,4.62,19.52,6.78Z"/>
  <path class="cls-1" d="M64.49,143.07c-1.09-1.12-2.89-1.14-4.01-.04-1.11,1.09-1.13,2.89-.03,4.01,1.09,1.12,2.89,1.13,4,.03,1.12-1.09,1.14-2.88.04-4ZM64.33,144.42c-.68-.71-1.81-.72-2.52-.03-.69.69-.71,1.81-.02,2.52.11.11.22.2.35.27-.44-.06-.87-.27-1.21-.62-.83-.84-.82-2.21.03-3.04.84-.83,2.21-.82,3.04.03.34.35.54.78.59,1.22-.07-.13-.16-.24-.26-.35Z"/>
  <path class="cls-1" d="M258.66,227.5c-1.43-1.13-3.52-.87-4.64.57-1.13,1.43-.87,3.52.56,4.64,1.44,1.13,3.52.87,4.64-.57,1.13-1.43.87-3.52-.56-4.64ZM258.63,229.11c-.88-.68-2.15-.54-2.84.35-.68.87-.53,2.15.35,2.83.14.11.28.19.43.26-.51-.02-1.02-.18-1.45-.53-1.06-.83-1.25-2.37-.42-3.43.83-1.06,2.37-1.25,3.43-.41.44.34.73.79.85,1.28-.09-.13-.21-.25-.35-.36Z"/>
  <path class="cls-1" d="M120.29,91.63c.26.35.36.83.25,1.42-.08.53-.33.89-.73,1.13-.41.22-.89.28-1.47.19l-.89-.15.58-3.43.98.16c.58.09,1.01.33,1.28.68Z"/>
  <path class="cls-1" d="M132.88,94.52l-2.33,3.86,2.54.65-.21-4.52ZM132.88,94.52l-2.33,3.86,2.54.65-.21-4.52ZM132.88,94.52l-2.33,3.86,2.54.65-.21-4.52ZM132.88,94.52l-2.33,3.86,2.54.65-.21-4.52ZM132.88,94.52l-2.33,3.86,2.54.65-.21-4.52ZM186.74,111.18l-1.78,4.14,2.61.29-.83-4.43ZM186.74,111.18l-1.78,4.14,2.61.29-.83-4.43ZM132.88,94.52l-2.33,3.86,2.54.65-.21-4.52ZM132.88,94.52l-2.33,3.86,2.54.65-.21-4.52ZM186.74,111.18l-1.78,4.14,2.61.29-.83-4.43ZM186.74,111.18l-1.78,4.14,2.61.29-.83-4.43ZM132.88,94.52l-2.33,3.86,2.54.65-.21-4.52ZM132.88,94.52l-2.33,3.86,2.54.65-.21-4.52ZM186.74,111.18l-1.78,4.14,2.61.29-.83-4.43ZM186.74,111.18l-1.78,4.14,2.61.29-.83-4.43ZM132.88,94.52l-2.33,3.86,2.54.65-.21-4.52ZM132.88,94.52l-2.33,3.86,2.54.65-.21-4.52ZM186.74,111.18l-1.78,4.14,2.61.29-.83-4.43ZM186.74,111.18l-1.78,4.14,2.61.29-.83-4.43ZM132.88,94.52l-2.33,3.86,2.54.65-.21-4.52ZM231.97,97.11c-5.7,3-14.74,4.53-22.61,3.38-.59-.08-1.17-.16-1.77-.2-.76-.05-1.76-.14-2.58-.21l-.86-.07c-13.46-1.55-29.5-5.64-42.99-10.94-10.15-3.97-19.43-6.93-27.73-9.01-22.26-5.61-37.54-4.99-43.92-.94-.95.6-1.72,1.4-2.28,2.32,1.63-.55,3.25-.98,4.92-1.35,2.54-.53,5.16-.88,7.69-.73-2.55.24-4.96.98-7.26,1.85-2.24.87-4.47,1.93-6.34,3.1-.04.36-.11.76-.17,1.18,3.96-1.35,8.13-2.09,12.19-1.88-4.63.49-8.94,2.19-12.61,4.39-.06.35-.13.69-.19,1.01-.02.15-.04.27-.07.41,3.69-1.12,7.55-1.77,11.29-1.57-4.28.52-8.21,2.07-11.71,4.02-.07.49-.16,1-.27,1.51,3.42-.95,6.97-1.45,10.41-1.27-4.03.51-7.74,1.92-11.06,3.72-.17.56-.34,1.12-.54,1.69,3.3-.87,6.7-1.31,10.01-1.17-4,.56-7.72,1.93-11.01,3.73-.25.6-.53,1.21-.81,1.84,3.38-.93,6.84-1.39,10.24-1.32-4.18.61-8.1,2.04-11.51,3.95-.32.62-.66,1.27-1.01,1.94,1.11-.32,2.21-.59,3.32-.81,2.53-.49,5.09-.85,7.63-.83-2.52.38-4.92,1.12-7.22,1.96-1.84.69-3.72,1.51-5.25,2.45-.28.49-.54.98-.84,1.49-.05.09-.08.17-.14.26.16-.05.33-.12.48-.16.95-.28,1.89-.48,2.85-.69,5.62-2.18,13.38-2.8,22.95-1.69.04,0,.08.02.12.02l2.98-4.3-.18,5.08c.47.17.92.35,1.23.48.8.14,1.61.29,2.41.44l1.42-4.21.16,4.49c12.7,2.42,25.76,6.22,38.89,11.35,17.08,6.72,34.78,10.55,48.26,11.11.01,0,.01-.01.01-.02l4.86-8.26-.65,8.36c8.66-.11,15.07-1.79,17.61-5.2l.32-.41c.13-.17.24-.33.37-.51-1.31.4-2.61.74-3.96,1.03-2.54.53-5.15.88-7.69.73,2.56-.24,4.97-.98,7.27-1.85,2.15-.83,4.27-1.84,6.09-2.96.03-.07.05-.14.09-.21.15-.34.28-.74.4-1.15-3.98,1.37-8.18,2.13-12.27,1.92,4.74-.51,9.14-2.27,12.87-4.56.07-.39.15-.8.22-1.21,0-.04.01-.08.02-.13-3.77,1.17-7.7,1.85-11.54,1.65,4.41-.53,8.44-2.17,12.03-4.19.09-.48.21-.97.34-1.46-3.54,1.02-7.22,1.58-10.79,1.4,4.24-.54,8.14-2.06,11.6-4,.06-.17.12-.35.18-.52.16-.38.34-.73.49-1.09-3.52.99-7.16,1.52-10.68,1.36,4.38-.6,8.45-2.16,11.97-4.22.26-.57.52-1.06.78-1.61-3.66,1.12-7.46,1.67-11.17,1.59,4.63-.67,8.99-2.33,12.63-4.57.26-.54.52-1.06.76-1.56-.14.04-.27.09-.41.14-1.25.37-2.52.66-3.78.92-2.52.49-5.08.85-7.62.82,2.51-.37,4.9-1.11,7.22-1.95,2.11-.8,4.27-1.75,5.89-2.87.07-.19.16-.38.22-.56.09-.28.18-.56.26-.83-.15.05-.31.11-.45.16ZM135.05,87.54l3.83.98-3.63,2-2.42-.62,2.22-2.36ZM120.64,96.68c-.65.06-1.33.03-2.04-.08l-1.49-.25-.51,3.06,1.2.2-.43,2.6-6.36-1.05.43-2.61,1.11.19,1.43-8.6-1.11-.19.43-2.58,6.39,1.06c1.15.19,2.05.45,2.73.8.67.35,1.18.76,1.51,1.21.33.45.52.94.58,1.47.05.53.03,1.07-.06,1.64-.12.65-.35,1.2-.71,1.64-.36.44-.8.79-1.33,1.03s-1.12.39-1.77.45ZM138.55,107.02l-7.77-2,.65-2.54,1.84.47-.07-1.42-3.97-1.02-.75,1.21,1.52.39-.65,2.54-6.16-1.58.64-2.54,1.33.34,4.79-7.83-.79-.2.64-2.51,7.44,1.91.6,11.88,1.36.35-.65,2.55ZM148.12,110.82l-.11-1.4c-.35.26-.85.42-1.48.47-.64.06-1.33-.05-2.04-.35-.82-.33-1.52-.78-2.09-1.37-.59-.59-1.03-1.27-1.33-2.05-.29-.78-.43-1.63-.41-2.56.02-.93.23-1.89.64-2.89.41-1.01.94-1.87,1.6-2.58.65-.71,1.37-1.25,2.15-1.63.77-.39,1.57-.61,2.38-.67.81-.06,1.59.06,2.32.36.67.26,1.19.56,1.57.86.38.32.66.61.86.88.2.28.33.54.39.77.07.22.13.39.17.49l.93-1.18,2.77,1.12-2.21,5.47-3.32-1.34c.14-.38.2-.74.21-1.08,0-.35-.06-.65-.18-.94-.12-.27-.27-.52-.48-.72-.2-.21-.44-.37-.72-.47-.37-.15-.75-.19-1.15-.13-.39.06-.76.21-1.12.43-.35.23-.66.53-.96.91-.31.38-.54.79-.73,1.25-.19.47-.32.94-.37,1.39-.05.46-.03.89.05,1.28.09.4.26.75.51,1.05.24.31.57.55.98.71.53.22.96.28,1.29.21.33-.07.61-.2.85-.4l.32-.78-1.14-.45.8-1.99,6.16,2.48-.8,1.99-.74-.31-1.87,4.64-3.7-1.49ZM159.56,115.88l-6.16-2.49,1-2.46,1.17.47,3.25-8.05-1.17-.47.99-2.44,6.16,2.48-.99,2.45-1.15-.46-3.26,8.04,1.16.46-1,2.47ZM175.05,120.31l-4.16-1.08-3.02-8.66-1.26,4.88,1.48.38-.64,2.5-5.95-1.55.65-2.51,1.14.31,2.23-8.54-1.13-.29.65-2.49,5.55,1.44,2.92,8.35,1.2-4.61-1.34-.35.65-2.49,5.82,1.52-.64,2.49-1.28-.33-2.87,11.03ZM194.09,122.78l-7.97-.91.29-2.6,1.88.21-.26-1.4-4.07-.46-.57,1.31,1.55.18-.29,2.6-6.32-.72.29-2.6,1.35.15,3.67-8.42-.82-.09.29-2.56,7.63.86,2.24,11.68,1.39.16-.29,2.61ZM184.96,115.32l2.61.29-.83-4.43-1.78,4.14ZM130.56,98.38l2.54.65-.21-4.52-2.33,3.86ZM132.88,94.52l-2.33,3.86,2.54.65-.21-4.52ZM186.74,111.18l-1.78,4.14,2.61.29-.83-4.43ZM186.74,111.18l-1.78,4.14,2.61.29-.83-4.43ZM132.88,94.52l-2.33,3.86,2.54.65-.21-4.52ZM132.88,94.52l-2.33,3.86,2.54.65-.21-4.52ZM186.74,111.18l-1.78,4.14,2.61.29-.83-4.43ZM186.74,111.18l-1.78,4.14,2.61.29-.83-4.43ZM132.88,94.52l-2.33,3.86,2.54.65-.21-4.52ZM132.88,94.52l-2.33,3.86,2.54.65-.21-4.52ZM186.74,111.18l-1.78,4.14,2.61.29-.83-4.43ZM186.74,111.18l-1.78,4.14,2.61.29-.83-4.43ZM132.88,94.52l-2.33,3.86,2.54.65-.21-4.52ZM132.88,94.52l-2.33,3.86,2.54.65-.21-4.52ZM132.88,94.52l-2.33,3.86,2.54.65-.21-4.52ZM132.88,94.52l-2.33,3.86,2.54.65-.21-4.52ZM132.88,94.52l-2.33,3.86,2.54.65-.21-4.52ZM132.88,94.52l-2.33,3.86,2.54.65-.21-4.52ZM132.88,94.52l-2.33,3.86,2.54.65-.21-4.52Z"/>
  <path class="cls-1" d="M187.96,172.71c.12.62.17,1.2.16,1.76-.01.56-.11,1.06-.26,1.51-.16.44-.41.82-.74,1.13-.34.31-.76.51-1.28.6l-.75.14-1.58-8.54.75-.14c.53-.09,1-.06,1.41.09.42.16.78.41,1.08.75.31.34.57.74.77,1.21s.35.97.44,1.49Z"/>
  <path class="cls-1" d="M200.1,167.4l-.81,4.43,2.6-.28-1.79-4.15ZM200.1,167.4l-.81,4.43,2.6-.28-1.79-4.15ZM168.78,173.24l-.19,4.5,2.54-.64-2.35-3.86ZM200.1,167.4l-.81,4.43,2.6-.28-1.79-4.15ZM200.1,167.4l-.81,4.43,2.6-.28-1.79-4.15ZM168.78,173.24l-.19,4.5,2.54-.64-2.35-3.86ZM129.1,188.66c-.11-.61-.25-1.16-.42-1.66-.18-.51-.39-.94-.64-1.29-.24-.36-.53-.62-.84-.79-.31-.18-.66-.23-1.04-.17-.29.06-.56.21-.76.45-.21.25-.37.57-.48.97-.11.4-.17.86-.18,1.39-.01.54.04,1.11.15,1.71.12.64.27,1.21.47,1.72.21.49.44.92.69,1.24.25.34.54.58.84.73.29.16.61.2.93.15.32-.06.58-.21.78-.45.21-.23.37-.55.48-.94.12-.38.18-.83.18-1.35s-.05-1.08-.16-1.69ZM142.06,182.99c-.16-.58-.42-.97-.8-1.18-.38-.2-.85-.23-1.42-.08l-.96.26.86,3.28.87-.23c.56-.15.98-.4,1.24-.75.26-.36.34-.79.2-1.31ZM168.78,173.24l-.19,4.5,2.54-.64-2.35-3.86ZM200.1,167.4l-.81,4.43,2.6-.28-1.79-4.15ZM200.1,167.4l-.81,4.43,2.6-.28-1.79-4.15ZM168.78,173.24l-.19,4.5,2.54-.64-2.35-3.86ZM142.06,182.99c-.16-.58-.42-.97-.8-1.18-.38-.2-.85-.23-1.42-.08l-.96.26.86,3.28.87-.23c.56-.15.98-.4,1.24-.75.26-.36.34-.79.2-1.31ZM129.1,188.66c-.11-.61-.25-1.16-.42-1.66-.18-.51-.39-.94-.64-1.29-.24-.36-.53-.62-.84-.79-.31-.18-.66-.23-1.04-.17-.29.06-.56.21-.76.45-.21.25-.37.57-.48.97-.11.4-.17.86-.18,1.39-.01.54.04,1.11.15,1.71.12.64.27,1.21.47,1.72.21.49.44.92.69,1.24.25.34.54.58.84.73.29.16.61.2.93.15.32-.06.58-.21.78-.45.21-.23.37-.55.48-.94.12-.38.18-.83.18-1.35s-.05-1.08-.16-1.69ZM240.4,189.13c-.04-.19-.07-.38-.11-.57-1.65-1.41-3.26-2.6-5.28-3.61-2.15-1.09-4.61-1.85-7.02-2.33,2.65.14,5.24.54,7.79,1.25,1.28.37,2.38.78,3.62,1.33.12.05.24.13.37.18-.08-.54-.19-1.11-.28-1.67-3.78-2.96-7.93-4.38-12.6-5.3,4.2.2,8.14.82,11.96,2.26-.13-.57-.27-1.15-.42-1.74-3.98-2.54-8.33-3.94-12.95-4.82,4.17.14,8.2.75,12.14,1.96-.12-.39-.24-.79-.37-1.15-.05-.17-.11-.37-.17-.55-4.2-2.19-8.42-3.76-13.11-4.62,4.28.11,8.33.82,12.37,1.97-.13-.53-.24-1.03-.35-1.55-4.36-2.31-8.76-3.98-13.65-4.81,4.57.06,8.87.91,13.17,2.21v-.05c-.07-.45-.14-.91-.22-1.35-4.61-2.61-9.3-4.35-14.59-5.22,4.9.11,9.46,1.01,14,2.52-.12-.42-.24-.8-.38-1.13-.06-.14-.11-.24-.17-.37-2.23-1.27-4.41-2.35-6.87-3.27-2.61-1-5.42-1.76-8.23-2.17,2.98.02,5.87.38,8.79,1.03,1.51.34,2.99.75,4.46,1.21-.13-.17-.26-.35-.4-.55-.15-.19-.02-.28-.29-.45-8.57-5.32-18.43-7.09-28.72-6.8.25,3.02.32,6.06.54,9.09-1.77-2.89-3.56-5.68-5.28-8.63-.05-.09-.09-.14-.13-.18-16.09,1.4-32.93,7.17-47.43,11.94-10.79,3.55-29.22,9.31-43.35,12.23-.06,1.54-.15,3.07-.2,4.6-.52-1.42-1.03-2.82-1.55-4.24-.93.18-1.84.35-2.73.49-.34.06-.85.23-1.41.43.07,1.59.09,3.77.18,5.29-1.08-1.43-2.21-2.86-3.29-4.33-.04.01-.09.02-.14.03-8.43.82-16.63,1.27-24.51-1.12-.04-.01-.08-.01-.13-.02-1.42-.24-2.8-.54-4.22-.91-.18-.05-.36-.12-.55-.17.05.08.12.19.15.25.31.51.59,1,.88,1.49,1.88,1.04,3.79,1.83,5.93,2.55,2.54.85,5.32,1.53,8.01,1.93-2.87-.01-5.68-.28-8.52-.77-1.27-.21-2.51-.49-3.76-.81.35.63.69,1.27,1.03,1.91,4.14,2.03,8.35,3.35,12.96,4.03-4,.03-7.81-.42-11.6-1.33.29.62.58,1.26.86,1.91,3.99,1.92,8.04,3.17,12.48,3.79-3.95.09-7.69-.31-11.44-1.16.22.57.42,1.16.61,1.75,4.03,1.91,8.09,3.2,12.58,3.78-4.09.14-7.97-.34-11.84-1.25.13.53.25,1.06.37,1.6,4.24,2.04,8.49,3.41,13.23,4-4.44.15-8.61-.43-12.81-1.52.05.2.12.41.21.66.11.26.15.56.18.85,4.53,2.31,9.07,3.77,14.2,4.33-4.9.18-9.42-.53-13.99-1.86.08.45.23.93.47,1.41,2.32,1.23,4.57,2.25,7.09,3.06,2.62.85,5.41,1.45,8.19,1.71-2.94.14-5.78-.06-8.69-.56-1.97-.33-3.88-.84-5.79-1.42.27.92.94,1.77,3.29,2.6,15.43,5.45,31.64,2.07,49.93-2.48,6.83-1.69,20.74-5.86,30.86-9.46,13.47-4.79,32.64-9.55,48.03-10.93.24-.02.58-.06,1.07-.09.49-.03,2-.17,2.67-.21.67-.05,1.36-.13,1.99-.18,8.48-.65,15.23.42,22.45,4.7.18.06.39.15.6.23-.05-.31-.09-.52-.17-.87ZM118.89,195.92c-.38.39-.81.74-1.27,1.06-.47.32-.99.59-1.56.82-.56.22-1.17.38-1.81.45-1.06.14-2.04.09-2.94-.13-.91-.21-1.69-.59-2.39-1.13-.68-.54-1.25-1.23-1.69-2.06-.45-.84-.74-1.82-.88-2.93-.14-1.14-.07-2.19.2-3.14.26-.96.66-1.79,1.18-2.48.52-.71,1.11-1.27,1.77-1.68.67-.42,1.33-.67,1.98-.76.48-.05.92-.05,1.29.02.38.07.71.17.98.29.26.12.48.24.64.38.16.14.26.23.31.27l.32-1.17,3.12-.39.71,5.63-3.55.45c-.05-.32-.15-.62-.27-.92-.14-.29-.29-.55-.49-.76-.19-.21-.43-.37-.71-.47s-.59-.14-.95-.09c-.36.05-.66.19-.94.43-.26.24-.47.56-.63.94-.17.38-.27.82-.33,1.31-.05.49-.04,1.01.03,1.56.05.48.18.95.36,1.38.18.43.42.81.71,1.13.28.31.62.55,1.01.71.38.17.81.21,1.28.16.41-.05.79-.2,1.14-.43.35-.23.64-.47.89-.75.25-.26.45-.51.6-.74.16-.23.25-.37.28-.43l2.64,2.25c-.31.41-.64.81-1.02,1.21ZM134.1,190.87c-.15.94-.45,1.77-.94,2.49-.48.72-1.13,1.32-1.93,1.8-.8.47-1.76.82-2.87,1.01-1.03.19-2,.2-2.92.05-.93-.15-1.75-.47-2.47-.97-.74-.48-1.36-1.16-1.86-2.01-.52-.85-.87-1.89-1.09-3.13-.19-1.06-.19-2.06-.01-3.01.18-.94.52-1.78,1.01-2.53.51-.74,1.15-1.36,1.93-1.86.79-.49,1.69-.83,2.72-1.01,1.21-.22,2.28-.23,3.23-.04.95.2,1.77.56,2.47,1.09.69.53,1.26,1.22,1.71,2.08.44.85.76,1.83.96,2.94.2,1.12.22,2.15.07,3.08ZM149.49,190.19c-.14.34-.37.64-.68.92s-.74.47-1.28.62c-1.27.34-2.31.26-3.08-.2-.78-.47-1.32-1.27-1.61-2.41-.12-.44-.23-.79-.35-1.07-.12-.26-.26-.46-.44-.59s-.4-.19-.67-.19c-.27.01-.63.06-1.05.18l.79,3,1.18-.32.67,2.55-6.24,1.65-.67-2.56,1.08-.28-2.23-8.43-1.07.28-.67-2.53,6.28-1.66c1.13-.29,2.06-.43,2.81-.41.75.03,1.37.17,1.86.42.48.26.86.61,1.13,1.06.26.44.46.95.61,1.51.09.37.12.74.06,1.09-.06.36-.18.69-.37,1-.19.31-.43.58-.74.83-.29.25-.64.45-1.02.61.35-.03.69-.01,1.04.07.35.07.66.21.96.39.29.19.56.41.78.68.22.27.39.59.47.94.12.41.23.73.36.94.13.22.27.31.45.25.29-.07.39-.33.28-.74l-.17-.64,1.29-.34.28,1.06c.11.4.16.8.17,1.2.01.39-.06.77-.21,1.11ZM154.34,189.03l-.92-2.51,1.55-.56-2.98-8.16-1.62.6.88,2.4-2.77,1.01-1.78-4.88,12.6-4.61,1.79,4.88-2.77,1.01-.87-2.4-1.58.57,2.98,8.16,1.56-.57.92,2.49-6.99,2.56ZM171.98,183.47l-.64-2.54,1.84-.47-.75-1.21-3.97,1.01-.07,1.42,1.52-.39.64,2.54-6.17,1.57-.64-2.54,1.32-.34.45-9.17-.79.2-.64-2.5,7.44-1.88,6.23,10.13,1.36-.34.65,2.54-7.78,1.98ZM191.51,177.46c-1.07,1.46-2.83,2.42-5.27,2.87l-5.92,1.09-.48-2.62,1.22-.22-1.58-8.54-1.21.22-.48-2.59,6-1.12c1.19-.22,2.28-.24,3.27-.06s1.85.51,2.6.99c.75.47,1.36,1.09,1.84,1.84.48.75.82,1.6.99,2.55.42,2.25.09,4.12-.98,5.58ZM201.86,177.97l-.29-2.61,1.89-.21-.57-1.31-4.08.46-.26,1.4,1.55-.18.29,2.6-6.32.72-.29-2.61,1.35-.15,1.71-9.02-.81.08-.28-2.56,7.63-.86,4.78,10.89,1.39-.15.29,2.6-7.97.89ZM199.29,171.83l2.6-.28-1.79-4.15-.81,4.43ZM168.59,177.74l2.54-.64-2.35-3.86-.19,4.5ZM141.26,181.81c-.38-.2-.85-.23-1.42-.08l-.96.26.86,3.28.87-.23c.56-.15.98-.4,1.24-.75.26-.36.34-.79.2-1.31-.16-.58-.42-.97-.8-1.18ZM128.68,187c-.18-.51-.39-.94-.64-1.29-.24-.36-.53-.62-.84-.79-.31-.18-.66-.23-1.04-.17-.29.06-.56.21-.76.45-.21.25-.37.57-.48.97-.11.4-.17.86-.18,1.39-.01.54.04,1.11.15,1.71.12.64.27,1.21.47,1.72.21.49.44.92.69,1.24.25.34.54.58.84.73.29.16.61.2.93.15.32-.06.58-.21.78-.45.21-.23.37-.55.48-.94.12-.38.18-.83.18-1.35s-.05-1.08-.16-1.69c-.11-.61-.25-1.16-.42-1.66ZM142.06,182.99c-.16-.58-.42-.97-.8-1.18-.38-.2-.85-.23-1.42-.08l-.96.26.86,3.28.87-.23c.56-.15.98-.4,1.24-.75.26-.36.34-.79.2-1.31ZM168.78,173.24l-.19,4.5,2.54-.64-2.35-3.86ZM200.1,167.4l-.81,4.43,2.6-.28-1.79-4.15ZM200.1,167.4l-.81,4.43,2.6-.28-1.79-4.15ZM168.78,173.24l-.19,4.5,2.54-.64-2.35-3.86ZM142.06,182.99c-.16-.58-.42-.97-.8-1.18-.38-.2-.85-.23-1.42-.08l-.96.26.86,3.28.87-.23c.56-.15.98-.4,1.24-.75.26-.36.34-.79.2-1.31ZM168.78,173.24l-.19,4.5,2.54-.64-2.35-3.86ZM200.1,167.4l-.81,4.43,2.6-.28-1.79-4.15ZM200.1,167.4l-.81,4.43,2.6-.28-1.79-4.15ZM168.78,173.24l-.19,4.5,2.54-.64-2.35-3.86Z"/>
</svg>